<svg width="516" height="107" viewBox="0 0 516 107" fill="none" xmlns="http://www.w3.org/2000/svg">
<g clip-path="url(#clip0_5_13)">
<path d="M92.2592 97.65H8.93399C7.29095 97.65 6 96.3575 6 94.7125V8.9375C6 7.2925 7.29095 6 8.93399 6H92.2592C93.9022 6 95.1932 7.2925 95.1932 8.9375V94.7125C95.1932 96.3575 93.9022 97.65 92.2592 97.65Z" stroke="black" stroke-width="2" stroke-miterlimit="10"/>
<path d="M57.7555 43.835C57.4034 43.835 57.4034 40.6625 55.1736 36.785C54.2347 35.0225 54 35.4925 50.2445 30.7925C47.7799 27.7375 47.3105 26.915 45.6675 25.3875C43.555 23.5075 42.4988 22.45 40.9731 22.3325C38.3912 22.0975 36.3961 24.095 33.9315 26.5625C31.2323 29.3825 29.7066 31.9675 27.8288 35.2575C26.1858 38.195 24.6601 40.78 23.3692 44.54C22.0782 48.1825 21.022 51.2375 21.1393 55.35C21.2567 58.405 21.9609 60.8725 22.665 63.105C22.8997 63.6925 23.0171 64.1625 25.2469 69.8025C27.8288 76.265 28.1809 76.97 28.533 77.675C30.176 81.0825 31.2323 82.61 30.9975 82.7275C30.6455 82.9625 28.0635 80.6125 26.0684 77.5575C25.1296 76.03 24.6601 75.09 22.3129 69.3325C19.379 62.2825 19.2616 61.8125 19.0269 60.8725C18.4401 58.64 17.6186 55.82 17.7359 51.9425C17.7359 48.065 18.6748 45.1275 19.0269 43.7175C19.8484 41.1325 20.9046 39.4875 22.8997 36.1975C25.4816 31.9675 27.8288 29.03 29.4719 27.0325C31.2322 24.9175 33.11 22.8025 35.8093 20.57C38.8606 18.1025 39.9168 17.8675 40.7384 17.8675C42.9682 17.8675 44.6112 19.63 46.6063 21.8625C49.423 24.9175 49.0709 25.975 52.0049 29.8525C54.9389 33.6125 55.8777 33.495 56.934 36.08C58.8117 39.84 58.2249 43.835 57.7555 43.835Z" fill="black"/>
<path d="M23.7213 88.72C27.1247 86.37 30.176 84.255 32.9926 82.4925C37.1002 79.79 38.8606 78.7325 41.5599 78.38C42.7335 78.145 44.6112 78.0275 47.6626 78.7325C53.1785 79.9075 55.4083 81.905 60.8068 84.725C67.0269 87.78 71.2518 89.895 76.533 89.3075C81.6968 88.72 85.687 85.7825 85.5697 85.43C85.4523 85.195 82.6357 86.84 78.4107 87.1925C74.0684 87.545 70.665 86.135 65.8533 84.1375C59.868 81.67 54.9389 78.38 54.5868 78.145C49.8924 74.9725 49.3056 73.68 46.8411 73.445C44.2591 73.21 41.7946 74.5025 37.1002 77.205C35.2225 78.2625 32.6406 79.79 29.7066 82.375C27.0073 84.6075 25.1296 86.9575 23.7213 88.72Z" fill="black"/>
<path d="M59.5159 35.14C59.7506 35.375 61.2763 33.26 64.445 30.91C66.9095 29.03 68.2005 28.09 69.8435 28.2075C72.6601 28.325 74.5379 31.145 75.9462 33.1425C78.2934 36.55 78.8802 39.7225 79.3496 42.19C79.5844 43.6 80.2885 47.595 79.467 52.765C78.8802 56.6425 77.9413 59.4625 76.1809 63.9275C74.4205 68.8625 73.4817 70.0375 72.8949 73.445C72.1907 77.3225 72.4254 81.0825 72.7775 81.0825C73.2469 81.0825 73.4817 77.205 75.5941 71.2125C76.8851 67.57 77.0024 68.275 79.5844 61.695C80.4059 59.58 81.8142 56.055 83.1051 51.59C83.8093 49.1225 84.1614 47.9475 84.2787 47.125C84.6308 43.365 83.3399 40.4275 81.4621 36.315C79.9364 32.9075 79.9364 34.0825 76.533 27.7375C74.3032 23.625 73.8337 22.3325 72.1907 21.745C69.8435 20.9225 67.1443 22.5675 65.8533 23.86C64.5623 25.1525 64.6797 25.8575 62.5672 29.6175C60.6895 33.1425 59.2812 34.905 59.5159 35.14Z" fill="black"/>
<path d="M133.952 13.688C142.272 13.688 148.501 15.5867 152.64 19.384C156.779 23.1387 158.848 28.6213 158.848 35.832C158.848 40.4827 157.824 44.5573 155.776 48.056C153.771 51.512 150.848 54.2 147.008 56.12C143.211 58.04 138.667 59 133.376 59L129.408 58.936C126.933 58.8507 125.141 58.808 124.032 58.808C119.637 58.808 116.352 58.872 114.176 59V57.72C115.584 57.6347 116.608 57.464 117.248 57.208C117.931 56.952 118.379 56.4613 118.592 55.736C118.848 55.0107 118.976 53.8373 118.976 52.216V20.472C118.976 18.8507 118.848 17.6773 118.592 16.952C118.379 16.2267 117.931 15.736 117.248 15.48C116.608 15.224 115.584 15.0533 114.176 14.968V13.688C115.968 13.816 118.549 13.88 121.92 13.88H123.904L126.464 13.816C129.963 13.7307 132.459 13.688 133.952 13.688ZM133.888 14.84C132.565 14.84 131.563 14.9893 130.88 15.288C130.24 15.5867 129.792 16.12 129.536 16.888C129.28 17.656 129.152 18.808 129.152 20.344V52.344C129.152 53.88 129.28 55.032 129.536 55.8C129.792 56.568 130.24 57.1013 130.88 57.4C131.563 57.6987 132.587 57.848 133.952 57.848C139.115 57.848 142.784 56.056 144.96 52.472C147.136 48.8453 148.224 43.384 148.224 36.088C148.224 28.792 147.093 23.4373 144.832 20.024C142.613 16.568 138.965 14.84 133.888 14.84ZM203.617 56.312C202.593 57.5067 201.441 58.4027 200.161 59C198.881 59.5973 197.281 59.896 195.361 59.896C192.929 59.896 191.051 59.4267 189.729 58.488C188.406 57.5493 187.553 56.2907 187.169 54.712L185.313 47.16C184.843 44.7707 184.118 43.192 183.137 42.424C182.198 41.6133 180.79 41.208 178.913 41.208H176.801V52.216C176.801 53.8373 176.907 55.0107 177.121 55.736C177.377 56.4613 177.825 56.952 178.465 57.208C179.147 57.464 180.193 57.6347 181.601 57.72V59C179.169 58.872 175.691 58.808 171.169 58.808C167.201 58.808 164.214 58.872 162.209 59V57.72C163.659 57.6347 164.705 57.464 165.345 57.208C165.985 56.952 166.411 56.4613 166.625 55.736C166.881 55.0107 167.009 53.8373 167.009 52.216V26.872C167.009 25.2507 166.881 24.0773 166.625 23.352C166.411 22.6267 165.985 22.136 165.345 21.88C164.705 21.624 163.659 21.4533 162.209 21.368V20.088C164.214 20.216 167.073 20.28 170.785 20.28L178.081 20.216C178.934 20.1733 179.894 20.152 180.961 20.152C186.678 20.152 190.945 21.0267 193.761 22.776C196.619 24.4827 198.049 26.872 198.049 29.944C198.049 32.5893 196.918 34.9147 194.657 36.92C192.395 38.9253 188.619 40.2053 183.329 40.76C183.926 40.76 184.545 40.824 185.185 40.952C188.257 41.2933 190.667 41.976 192.417 43C194.209 44.024 195.382 45.6453 195.937 47.864L197.281 53.56C197.579 54.7547 197.942 55.608 198.369 56.12C198.795 56.632 199.329 56.888 199.969 56.888C200.865 56.888 201.782 56.4187 202.721 55.48L203.617 56.312ZM180.129 21.368C179.19 21.368 178.486 21.5173 178.017 21.816C177.547 22.1147 177.227 22.648 177.057 23.416C176.886 24.184 176.801 25.336 176.801 26.872V39.928H179.553C182.71 39.928 184.865 39.1173 186.017 37.496C187.211 35.8747 187.809 33.592 187.809 30.648C187.809 27.5333 187.211 25.208 186.017 23.672C184.865 22.136 182.902 21.368 180.129 21.368ZM232.524 12.856C234.742 12.856 236.513 13.0693 237.836 13.496C239.158 13.9227 240.502 14.5413 241.868 15.352C242.337 15.608 242.742 15.8213 243.084 15.992C243.468 16.1627 243.788 16.248 244.044 16.248C244.428 16.248 244.726 16.0347 244.94 15.608C245.153 15.1387 245.324 14.4133 245.452 13.432H246.924C246.71 16.2907 246.604 21.1547 246.604 28.024H245.132C244.961 25.72 244.428 23.5227 243.532 21.432C242.678 19.3413 241.441 17.656 239.82 16.376C238.241 15.0533 236.385 14.392 234.252 14.392C232.161 14.392 230.454 14.9893 229.132 16.184C227.852 17.336 227.212 18.9147 227.212 20.92C227.212 22.4133 227.532 23.7147 228.172 24.824C228.812 25.9333 229.708 26.9573 230.86 27.896C232.012 28.792 233.782 30.0293 236.172 31.608L238.22 33.016C240.737 34.68 242.721 36.1307 244.172 37.368C245.622 38.6053 246.796 40.056 247.692 41.72C248.63 43.3413 249.1 45.24 249.1 47.416C249.1 50.1467 248.396 52.4507 246.988 54.328C245.58 56.1627 243.66 57.5493 241.228 58.488C238.838 59.4267 236.172 59.896 233.228 59.896C230.838 59.896 228.854 59.6827 227.276 59.256C225.697 58.8293 224.246 58.2533 222.924 57.528C221.985 56.9307 221.26 56.632 220.748 56.632C220.364 56.632 220.065 56.8667 219.852 57.336C219.638 57.7627 219.468 58.4667 219.34 59.448H217.868C218.038 56.76 218.124 51 218.124 42.168H219.596C219.894 46.9467 220.961 50.8293 222.796 53.816C224.63 56.76 227.446 58.232 231.244 58.232C233.548 58.232 235.446 57.6133 236.94 56.376C238.433 55.1387 239.18 53.368 239.18 51.064C239.18 48.6747 238.412 46.6267 236.876 44.92C235.34 43.2133 232.908 41.2933 229.58 39.16C227.02 37.496 224.972 36.0453 223.436 34.808C221.9 33.5707 220.641 32.12 219.66 30.456C218.678 28.7493 218.188 26.7867 218.188 24.568C218.188 22.008 218.828 19.8533 220.108 18.104C221.43 16.312 223.18 14.9893 225.356 14.136C227.532 13.2827 229.921 12.856 232.524 12.856ZM286.676 53.624C287.913 56.2693 289.257 57.6347 290.708 57.72V59C288.66 58.872 285.865 58.808 282.324 58.808C277.758 58.808 274.388 58.872 272.212 59V57.72C273.62 57.6347 274.665 57.4213 275.348 57.08C276.03 56.696 276.372 56.0773 276.372 55.224C276.372 54.456 276.094 53.496 275.54 52.344L272.34 45.048H258.9L258.132 46.776C256.937 49.592 256.34 51.7893 256.34 53.368C256.34 54.8187 256.809 55.8853 257.748 56.568C258.686 57.2507 260.073 57.6347 261.908 57.72V59C259.476 58.872 257.022 58.808 254.548 58.808C252.244 58.808 250.516 58.872 249.364 59V57.72C250.388 57.5067 251.326 56.8667 252.18 55.8C253.076 54.6907 254.014 53.048 254.996 50.872L268.5 19.96C268.841 20.0027 269.332 20.024 269.972 20.024C270.654 20.024 271.145 20.0027 271.444 19.96L286.676 53.624ZM271.764 43.768L265.62 29.752L259.476 43.768H271.764ZM318.879 20.28C320.756 20.28 322.314 20.216 323.551 20.088V21.368C322.442 21.7947 321.418 22.6267 320.479 23.864C319.54 25.0587 318.559 26.8507 317.535 29.24L304.991 59.128C304.65 59.0853 304.159 59.064 303.519 59.064C302.879 59.064 302.388 59.0853 302.047 59.128L286.239 25.464C285.002 22.8187 283.658 21.4533 282.207 21.368V20.088C284.212 20.216 287.007 20.28 290.591 20.28C295.156 20.28 298.527 20.216 300.703 20.088V21.368C299.295 21.4533 298.25 21.688 297.567 22.072C296.884 22.4133 296.543 22.9893 296.543 23.8C296.543 24.6107 296.82 25.592 297.375 26.744L307.679 49.144L314.143 34.104C315.508 30.8187 316.191 28.1947 316.191 26.232C316.191 23.1173 314.463 21.496 311.007 21.368V20.088C313.439 20.216 316.063 20.28 318.879 20.28ZM363.164 53.816C363.975 54.8827 364.679 55.6933 365.276 56.248C365.873 56.8027 366.62 57.2933 367.516 57.72V59C364.572 58.872 361.308 58.808 357.724 58.808C354.695 58.808 351.793 58.872 349.02 59V57.72C350.385 57.6773 351.345 57.5707 351.9 57.4C352.455 57.1867 352.732 56.888 352.732 56.504C352.732 56.12 352.497 55.5653 352.028 54.84L343.644 42.808C342.919 41.784 342.193 41.016 341.468 40.504C340.743 39.9493 339.783 39.6507 338.588 39.608V52.216C338.588 53.8373 338.695 55.0107 338.908 55.736C339.164 56.4613 339.612 56.952 340.252 57.208C340.892 57.464 341.937 57.6347 343.388 57.72V59C341.212 58.872 338.055 58.808 333.916 58.808C329.479 58.808 326.172 58.872 323.996 59V57.72C325.447 57.6347 326.492 57.464 327.132 57.208C327.772 56.952 328.199 56.4613 328.412 55.736C328.668 55.0107 328.796 53.8373 328.796 52.216V26.872C328.796 25.2507 328.668 24.0773 328.412 23.352C328.199 22.6267 327.751 22.136 327.068 21.88C326.428 21.624 325.404 21.4533 323.996 21.368V20.088C326.172 20.216 329.479 20.28 333.916 20.28C338.055 20.28 341.212 20.216 343.388 20.088V21.368C341.937 21.4533 340.892 21.624 340.252 21.88C339.612 22.136 339.164 22.6267 338.908 23.352C338.695 24.0773 338.588 25.2507 338.588 26.872V38.328C340.423 38.1573 342.108 37.688 343.644 36.92C345.18 36.152 346.823 34.936 348.572 33.272L352.476 29.304C354.14 27.6827 354.972 26.2107 354.972 24.888C354.972 23.864 354.524 23.032 353.628 22.392C352.732 21.752 351.58 21.3893 350.172 21.304V20.088C353.244 20.216 356.529 20.28 360.028 20.28C362.289 20.28 364.188 20.216 365.724 20.088V21.304C364.231 21.6453 362.801 22.2427 361.436 23.096C360.071 23.9067 358.599 25.0587 357.02 26.552L349.148 34.296L363.164 53.816ZM388.297 19.192C392.607 19.192 396.383 19.9813 399.625 21.56C402.868 23.096 405.385 25.3787 407.177 28.408C408.969 31.3947 409.865 34.9787 409.865 39.16C409.865 43.256 408.948 46.8827 407.113 50.04C405.279 53.1547 402.719 55.5867 399.433 57.336C396.148 59.0427 392.415 59.896 388.233 59.896C383.924 59.896 380.148 59.128 376.905 57.592C373.663 56.0133 371.145 53.7307 369.353 50.744C367.561 47.7147 366.665 44.1093 366.665 39.928C366.665 35.832 367.583 32.2267 369.417 29.112C371.252 25.9547 373.812 23.5227 377.097 21.816C380.383 20.0667 384.116 19.192 388.297 19.192ZM388.041 20.344C385.823 20.344 383.86 21.176 382.153 22.84C380.489 24.4613 379.188 26.744 378.249 29.688C377.353 32.5893 376.905 35.9173 376.905 39.672C376.905 43.4693 377.417 46.8187 378.441 49.72C379.465 52.6213 380.852 54.8613 382.601 56.44C384.393 57.976 386.356 58.744 388.489 58.744C390.708 58.744 392.649 57.9333 394.313 56.312C396.02 54.648 397.321 52.3653 398.217 49.464C399.156 46.52 399.625 43.1707 399.625 39.416C399.625 35.6187 399.113 32.2693 398.089 29.368C397.065 26.4667 395.657 24.248 393.865 22.712C392.116 21.1333 390.175 20.344 388.041 20.344ZM446.102 20.28C447.979 20.28 449.536 20.216 450.774 20.088V21.368C449.664 21.7947 448.64 22.6267 447.702 23.864C446.763 25.0587 445.782 26.8507 444.758 29.24L432.214 59.128C431.872 59.0853 431.382 59.064 430.742 59.064C430.102 59.064 429.611 59.0853 429.27 59.128L413.462 25.464C412.224 22.8187 410.88 21.4533 409.43 21.368V20.088C411.435 20.216 414.23 20.28 417.814 20.28C422.379 20.28 425.75 20.216 427.926 20.088V21.368C426.518 21.4533 425.472 21.688 424.79 22.072C424.107 22.4133 423.766 22.9893 423.766 23.8C423.766 24.6107 424.043 25.592 424.598 26.744L434.902 49.144L441.366 34.104C442.731 30.8187 443.414 28.1947 443.414 26.232C443.414 23.1173 441.686 21.496 438.23 21.368V20.088C440.662 20.216 443.286 20.28 446.102 20.28ZM470.611 21.368C469.16 21.4533 468.115 21.624 467.475 21.88C466.835 22.136 466.387 22.6267 466.131 23.352C465.917 24.0773 465.811 25.2507 465.811 26.872V52.216C465.811 53.8373 465.917 55.0107 466.131 55.736C466.387 56.4613 466.835 56.952 467.475 57.208C468.115 57.464 469.16 57.6347 470.611 57.72V59C468.435 58.872 465.277 58.808 461.139 58.808C456.659 58.808 453.352 58.872 451.219 59V57.72C452.669 57.6347 453.715 57.464 454.355 57.208C454.995 56.952 455.421 56.4613 455.635 55.736C455.891 55.0107 456.019 53.8373 456.019 52.216V26.872C456.019 25.2507 455.891 24.0773 455.635 23.352C455.421 22.6267 454.973 22.136 454.291 21.88C453.651 21.624 452.627 21.4533 451.219 21.368V20.088C453.309 20.216 456.616 20.28 461.139 20.28C465.277 20.28 468.435 20.216 470.611 20.088V21.368ZM494.182 19.192C496.657 19.192 498.662 19.5547 500.198 20.28C501.734 20.9627 503.313 21.9867 504.934 23.352C505.403 23.736 505.809 23.928 506.15 23.928C507.003 23.928 507.558 22.648 507.814 20.088H509.286C509.115 22.648 509.03 27.128 509.03 33.528H507.558C507.131 31.224 506.705 29.56 506.278 28.536C505.851 27.4693 505.211 26.4027 504.358 25.336C503.163 23.928 501.798 22.84 500.262 22.072C498.769 21.2613 497.211 20.856 495.59 20.856C493.243 20.856 491.195 21.624 489.446 23.16C487.697 24.6533 486.331 26.808 485.35 29.624C484.411 32.44 483.942 35.7893 483.942 39.672C483.942 43.5973 484.454 46.968 485.478 49.784C486.545 52.5573 487.995 54.6693 489.83 56.12C491.665 57.528 493.734 58.232 496.038 58.232C497.702 58.232 499.323 57.848 500.902 57.08C502.523 56.2693 503.91 55.16 505.062 53.752C505.915 52.6853 506.534 51.5333 506.918 50.296C507.302 49.0587 507.665 47.2667 508.006 44.92H509.478C509.478 51.6187 509.563 56.312 509.734 59H508.262C508.134 57.6773 507.942 56.7173 507.686 56.12C507.43 55.48 507.089 55.16 506.662 55.16C506.321 55.16 505.894 55.352 505.382 55.736C503.803 57.0587 502.161 58.0827 500.454 58.808C498.747 59.5333 496.699 59.896 494.31 59.896C490.257 59.896 486.673 59.1067 483.558 57.528C480.443 55.9493 478.011 53.6667 476.262 50.68C474.555 47.6933 473.702 44.1093 473.702 39.928C473.702 35.8747 474.598 32.2693 476.39 29.112C478.182 25.9547 480.614 23.5227 483.686 21.816C486.801 20.0667 490.299 19.192 494.182 19.192ZM498.214 4.472C498.811 4.13066 499.473 3.96 500.198 3.96C500.881 3.96 501.499 4.13066 502.054 4.472C502.651 4.77066 503.099 5.24 503.398 5.88C503.654 6.30666 503.782 6.79733 503.782 7.352C503.782 7.992 503.59 8.61066 503.206 9.208C502.822 9.76266 502.289 10.232 501.606 10.616C500.966 10.9573 500.219 11.2773 499.366 11.576C498.513 11.832 497.595 12.0667 496.614 12.28C496.315 12.3653 495.355 12.6213 493.734 13.048C492.155 13.4747 490.342 14.072 488.294 14.84L487.846 14.072C489.937 12.3227 492.049 10.296 494.182 7.992C495.121 7.01066 495.867 6.28533 496.422 5.816C496.977 5.304 497.574 4.856 498.214 4.472Z" fill="black"/>
<path d="M127.552 73.344C131.968 73.344 135.275 74.2933 137.472 76.192C139.669 78.0693 140.768 80.8107 140.768 84.416C140.768 86.7413 140.224 88.7787 139.136 90.528C138.069 92.256 136.523 93.6 134.496 94.56C132.469 95.52 130.059 96 127.264 96L125.28 95.968C124 95.9253 123.061 95.904 122.464 95.904C119.968 95.904 118.112 95.936 116.896 96V95.36C117.579 95.3173 118.069 95.232 118.368 95.104C118.688 94.976 118.901 94.7307 119.008 94.368C119.115 94.0053 119.168 93.4187 119.168 92.608V76.736C119.168 75.9253 119.104 75.3387 118.976 74.976C118.869 74.6133 118.667 74.368 118.368 74.24C118.069 74.112 117.579 74.0267 116.896 73.984V73.344C117.877 73.408 119.328 73.44 121.248 73.44H122.4L123.808 73.408C125.6 73.3653 126.848 73.344 127.552 73.344ZM128.032 73.92C127.371 73.92 126.869 73.9947 126.528 74.144C126.208 74.2933 125.984 74.56 125.856 74.944C125.728 75.328 125.664 75.904 125.664 76.672V92.672C125.664 93.44 125.728 94.016 125.856 94.4C125.984 94.784 126.208 95.0507 126.528 95.2C126.869 95.3493 127.381 95.424 128.064 95.424C130.176 95.424 131.701 94.5173 132.64 92.704C133.579 90.8693 134.048 88.1493 134.048 84.544C134.048 80.9387 133.557 78.272 132.576 76.544C131.616 74.7947 130.101 73.92 128.032 73.92ZM172.056 90.624C172.056 92.8 172.131 94.592 172.28 96C170.83 95.936 168.387 95.904 164.952 95.904C159.96 95.904 156.227 95.936 153.752 96V95.36C154.435 95.3173 154.926 95.232 155.224 95.104C155.544 94.976 155.758 94.7307 155.864 94.368C155.971 94.0053 156.024 93.4187 156.024 92.608V76.736C156.024 75.9253 155.96 75.3387 155.832 74.976C155.726 74.6133 155.523 74.368 155.224 74.24C154.926 74.112 154.435 74.0267 153.752 73.984V73.344C156.227 73.408 159.96 73.44 164.952 73.44C168.088 73.44 170.318 73.408 171.64 73.344C171.491 75.3493 171.416 77.1413 171.416 78.72C171.416 79.7013 171.448 80.4693 171.512 81.024H170.776C170.392 78.5493 169.678 76.7787 168.632 75.712C167.587 74.624 166.339 74.08 164.888 74.08H164.472C163.896 74.08 163.47 74.1333 163.192 74.24C162.936 74.3253 162.755 74.5067 162.648 74.784C162.563 75.04 162.52 75.4773 162.52 76.096V84.288H162.84C163.95 84.288 164.899 83.8507 165.688 82.976C166.478 82.1013 166.979 81.1307 167.192 80.064H167.928C167.864 80.96 167.832 81.9627 167.832 83.072V84.608C167.832 85.696 167.896 87.2107 168.024 89.152H167.288C167.096 87.936 166.595 86.9333 165.784 86.144C164.995 85.3333 164.014 84.928 162.84 84.928H162.52V93.248C162.52 93.8667 162.563 94.3147 162.648 94.592C162.755 94.848 162.936 95.0293 163.192 95.136C163.47 95.2213 163.896 95.264 164.472 95.264H165.528C166.766 95.264 167.939 94.6667 169.048 93.472C170.158 92.256 170.947 90.3253 171.416 87.68H172.152C172.088 88.448 172.056 89.4293 172.056 90.624ZM207.525 73.984C206.863 74.1333 206.373 74.368 206.053 74.688C205.733 74.9867 205.519 75.456 205.413 76.096C205.306 76.736 205.253 77.696 205.253 78.976V96C204.826 95.9573 204.474 95.936 204.197 95.936C203.962 95.936 203.567 95.9573 203.013 96L188.837 80.512V89.728C188.837 91.3067 188.901 92.448 189.029 93.152C189.157 93.8347 189.434 94.336 189.861 94.656C190.309 94.976 191.045 95.2107 192.069 95.36V96C191.194 95.936 189.999 95.904 188.485 95.904C187.354 95.904 186.469 95.936 185.829 96V95.36C186.49 95.2107 186.981 94.9867 187.301 94.688C187.621 94.368 187.834 93.888 187.941 93.248C188.047 92.608 188.101 91.648 188.101 90.368V76.736C188.101 75.9253 188.037 75.3387 187.909 74.976C187.802 74.6133 187.599 74.368 187.301 74.24C187.002 74.112 186.511 74.0267 185.829 73.984V73.344C186.469 73.408 187.354 73.44 188.485 73.44C189.637 73.44 190.618 73.408 191.429 73.344L204.517 87.168V79.616C204.517 78.0373 204.453 76.9067 204.325 76.224C204.197 75.52 203.909 75.008 203.461 74.688C203.034 74.368 202.309 74.1333 201.285 73.984V73.344C202.159 73.408 203.354 73.44 204.869 73.44C205.999 73.44 206.885 73.408 207.525 73.344V73.984ZM241.138 73.344C240.989 75.712 240.914 77.824 240.914 79.68C240.914 80.6613 240.946 81.4293 241.01 81.984H240.274C239.57 79.1893 238.664 77.1733 237.554 75.936C236.445 74.6987 235.25 74.08 233.97 74.08H233.938V92.384C233.938 93.28 234.024 93.9307 234.194 94.336C234.386 94.7413 234.717 95.0187 235.186 95.168C235.677 95.296 236.445 95.36 237.49 95.36V96C234.482 95.936 232.146 95.904 230.482 95.904C228.968 95.904 226.77 95.936 223.89 96V95.36C224.936 95.36 225.693 95.296 226.162 95.168C226.653 95.0187 226.984 94.7413 227.154 94.336C227.346 93.9307 227.442 93.28 227.442 92.384V74.08H227.41C226.109 74.08 224.904 74.6987 223.794 75.936C222.706 77.152 221.81 79.168 221.106 81.984H220.37C220.434 81.4293 220.466 80.6613 220.466 79.68C220.466 77.824 220.392 75.712 220.242 73.344C222.269 73.408 225.757 73.44 230.706 73.44C235.634 73.44 239.112 73.408 241.138 73.344ZM271.468 93.312C271.745 93.9947 272.044 94.5067 272.364 94.848C272.705 95.168 273.036 95.3387 273.356 95.36V96C271.82 95.936 269.878 95.904 267.532 95.904C265.1 95.904 263.308 95.936 262.156 96V95.36C262.966 95.3173 263.542 95.2213 263.884 95.072C264.225 94.9013 264.396 94.6133 264.396 94.208C264.396 93.824 264.268 93.312 264.012 92.672L262.124 87.424H255.66L255.116 88.864C254.412 90.6773 254.06 92.064 254.06 93.024C254.06 93.8987 254.305 94.496 254.796 94.816C255.286 95.136 256.012 95.3173 256.972 95.36V96C255.372 95.936 253.974 95.904 252.78 95.904C251.777 95.904 250.956 95.936 250.316 96V95.36C250.849 95.2747 251.35 94.944 251.82 94.368C252.289 93.792 252.769 92.8747 253.26 91.616L260.364 73.344C261.046 73.3867 261.612 73.408 262.06 73.408C262.486 73.408 263.041 73.3867 263.724 73.344L271.468 93.312ZM261.9 86.784L258.988 78.784L255.916 86.784H261.9ZM295.975 73.984C295.207 74.0267 294.641 74.112 294.279 74.24C293.937 74.368 293.703 74.6133 293.575 74.976C293.447 75.3387 293.383 75.9253 293.383 76.736V93.248C293.383 93.8453 293.425 94.2827 293.511 94.56C293.596 94.8373 293.745 95.0293 293.959 95.136C294.172 95.2213 294.524 95.264 295.015 95.264H296.071C296.817 95.264 297.628 94.8907 298.503 94.144C299.377 93.3973 300.167 92.416 300.871 91.2C301.575 89.9627 302.044 88.6827 302.279 87.36H303.015C302.951 88.128 302.919 89.1093 302.919 90.304C302.919 92.608 302.993 94.5067 303.143 96C301.692 95.936 299.249 95.904 295.815 95.904C290.823 95.904 287.089 95.936 284.615 96V95.36C285.297 95.3173 285.788 95.232 286.087 95.104C286.407 94.976 286.62 94.7307 286.727 94.368C286.833 94.0053 286.887 93.4187 286.887 92.608V76.736C286.887 75.9253 286.823 75.3387 286.695 74.976C286.588 74.6133 286.385 74.368 286.087 74.24C285.788 74.112 285.297 74.0267 284.615 73.984V73.344C285.831 73.408 287.729 73.44 290.311 73.44C292.764 73.44 294.652 73.408 295.975 73.344V73.984ZM345.742 72.896C348.152 72.896 350.264 73.3547 352.078 74.272C353.891 75.1893 355.299 76.5227 356.302 78.272C357.304 80 357.806 82.0693 357.806 84.48C357.806 86.8267 357.294 88.9067 356.27 90.72C355.246 92.5333 353.816 93.9413 351.982 94.944C350.147 95.9467 348.056 96.448 345.71 96.448C343.299 96.448 341.187 95.9893 339.374 95.072C337.56 94.1547 336.152 92.832 335.15 91.104C334.147 89.3547 333.646 87.2747 333.646 84.864C333.646 82.5173 334.158 80.4373 335.182 78.624C336.206 76.8107 337.635 75.4027 339.47 74.4C341.304 73.3973 343.395 72.896 345.742 72.896ZM345.614 73.472C344.568 73.472 343.64 73.952 342.83 74.912C342.04 75.8507 341.432 77.1733 341.006 78.88C340.579 80.5867 340.366 82.5387 340.366 84.736C340.366 86.9547 340.611 88.9067 341.102 90.592C341.592 92.2773 342.254 93.5787 343.086 94.496C343.918 95.4133 344.835 95.872 345.838 95.872C346.883 95.872 347.8 95.4027 348.59 94.464C349.4 93.504 350.019 92.1707 350.446 90.464C350.872 88.7573 351.086 86.8053 351.086 84.608C351.086 82.3893 350.84 80.4373 350.35 78.752C349.859 77.0667 349.198 75.7653 348.366 74.848C347.534 73.9307 346.616 73.472 345.614 73.472ZM388.697 73.344C388.547 75.3493 388.473 77.1413 388.473 78.72C388.473 79.7013 388.505 80.4693 388.569 81.024H387.833C387.321 78.5493 386.531 76.7787 385.465 75.712C384.419 74.624 383.246 74.08 381.945 74.08H381.529C380.953 74.08 380.526 74.1333 380.249 74.24C379.993 74.3253 379.811 74.5067 379.705 74.784C379.619 75.04 379.577 75.4773 379.577 76.096V84.288H379.897C381.006 84.288 381.955 83.8507 382.745 82.976C383.534 82.1013 384.035 81.1307 384.249 80.064H384.985C384.921 80.96 384.889 81.9627 384.889 83.072V84.608C384.889 85.696 384.953 87.2107 385.081 89.152H384.345C384.153 87.936 383.651 86.9333 382.841 86.144C382.051 85.3333 381.07 84.928 379.897 84.928H379.577V92.288C379.577 93.184 379.662 93.8347 379.833 94.24C380.025 94.6453 380.355 94.9227 380.825 95.072C381.315 95.2 382.083 95.264 383.129 95.264V96C380.249 95.936 378.051 95.904 376.537 95.904C375.534 95.904 374.137 95.9253 372.345 95.968L370.809 96V95.36C371.491 95.3173 371.982 95.232 372.281 95.104C372.601 94.976 372.814 94.7307 372.921 94.368C373.027 94.0053 373.081 93.4187 373.081 92.608V76.736C373.081 75.9253 373.017 75.3387 372.889 74.976C372.782 74.6133 372.579 74.368 372.281 74.24C371.982 74.112 371.491 74.0267 370.809 73.984V73.344C373.283 73.408 377.017 73.44 382.009 73.44C385.145 73.44 387.374 73.408 388.697 73.344ZM419.365 73.344C419.216 75.3493 419.141 77.1413 419.141 78.72C419.141 79.7013 419.173 80.4693 419.237 81.024H418.501C417.989 78.5493 417.2 76.7787 416.133 75.712C415.088 74.624 413.915 74.08 412.613 74.08H412.197C411.621 74.08 411.195 74.1333 410.917 74.24C410.661 74.3253 410.48 74.5067 410.373 74.784C410.288 75.04 410.245 75.4773 410.245 76.096V84.288H410.565C411.675 84.288 412.624 83.8507 413.413 82.976C414.203 82.1013 414.704 81.1307 414.917 80.064H415.653C415.589 80.96 415.557 81.9627 415.557 83.072V84.608C415.557 85.696 415.621 87.2107 415.749 89.152H415.013C414.821 87.936 414.32 86.9333 413.509 86.144C412.72 85.3333 411.739 84.928 410.565 84.928H410.245V92.288C410.245 93.184 410.331 93.8347 410.501 94.24C410.693 94.6453 411.024 94.9227 411.493 95.072C411.984 95.2 412.752 95.264 413.797 95.264V96C410.917 95.936 408.72 95.904 407.205 95.904C406.203 95.904 404.805 95.9253 403.013 95.968L401.477 96V95.36C402.16 95.3173 402.651 95.232 402.949 95.104C403.269 94.976 403.483 94.7307 403.589 94.368C403.696 94.0053 403.749 93.4187 403.749 92.608V76.736C403.749 75.9253 403.685 75.3387 403.557 74.976C403.451 74.6133 403.248 74.368 402.949 74.24C402.651 74.112 402.16 74.0267 401.477 73.984V73.344C403.952 73.408 407.685 73.44 412.677 73.44C415.813 73.44 418.043 73.408 419.365 73.344ZM443.186 73.984C442.503 74.0267 442.002 74.112 441.682 74.24C441.383 74.368 441.181 74.6133 441.074 74.976C440.967 75.3387 440.914 75.9253 440.914 76.736V92.608C440.914 93.4187 440.967 94.0053 441.074 94.368C441.202 94.7307 441.415 94.976 441.714 95.104C442.013 95.232 442.503 95.3173 443.186 95.36V96C441.949 95.936 440.167 95.904 437.842 95.904C435.261 95.904 433.362 95.936 432.146 96V95.36C432.829 95.3173 433.319 95.232 433.618 95.104C433.938 94.976 434.151 94.7307 434.258 94.368C434.365 94.0053 434.418 93.4187 434.418 92.608V76.736C434.418 75.9253 434.354 75.3387 434.226 74.976C434.119 74.6133 433.917 74.368 433.618 74.24C433.319 74.112 432.829 74.0267 432.146 73.984V73.344C433.362 73.408 435.261 73.44 437.842 73.44C440.146 73.44 441.927 73.408 443.186 73.344V73.984ZM468.292 72.896C469.572 72.896 470.66 73.0773 471.556 73.44C472.452 73.8027 473.326 74.3147 474.18 74.976C474.393 75.168 474.596 75.264 474.788 75.264C475.214 75.264 475.492 74.624 475.62 73.344H476.356C476.27 74.8587 476.228 77.5253 476.228 81.344H475.492C475.342 79.6373 475.065 78.2933 474.66 77.312C474.254 76.3307 473.55 75.5093 472.548 74.848C471.545 74.208 470.553 73.888 469.572 73.888C467.353 73.888 465.796 74.9547 464.9 77.088C464.004 79.2213 463.556 81.7707 463.556 84.736C463.556 87.7013 464.004 90.2507 464.9 92.384C465.796 94.5173 467.353 95.584 469.572 95.584C470.553 95.584 471.545 95.264 472.548 94.624C473.55 94.0053 474.254 93.1733 474.66 92.128C475.065 91.0827 475.342 89.6 475.492 87.68H476.228C476.228 91.6693 476.27 94.4427 476.356 96H475.62C475.556 95.3173 475.46 94.8373 475.332 94.56C475.225 94.2613 475.065 94.112 474.852 94.112C474.681 94.112 474.457 94.1973 474.18 94.368C473.22 95.0507 472.302 95.5733 471.428 95.936C470.553 96.2773 469.497 96.448 468.26 96.448C465.849 96.448 463.737 95.9893 461.924 95.072C460.11 94.1547 458.702 92.832 457.7 91.104C456.697 89.3547 456.196 87.2747 456.196 84.864C456.196 82.5173 456.708 80.4373 457.732 78.624C458.756 76.8107 460.185 75.4027 462.02 74.4C463.854 73.3973 465.945 72.896 468.292 72.896ZM508.381 90.624C508.381 92.8 508.456 94.592 508.605 96C507.155 95.936 504.712 95.904 501.277 95.904C496.285 95.904 492.552 95.936 490.077 96V95.36C490.76 95.3173 491.251 95.232 491.549 95.104C491.869 94.976 492.083 94.7307 492.189 94.368C492.296 94.0053 492.349 93.4187 492.349 92.608V76.736C492.349 75.9253 492.285 75.3387 492.157 74.976C492.051 74.6133 491.848 74.368 491.549 74.24C491.251 74.112 490.76 74.0267 490.077 73.984V73.344C492.552 73.408 496.285 73.44 501.277 73.44C504.413 73.44 506.643 73.408 507.965 73.344C507.816 75.3493 507.741 77.1413 507.741 78.72C507.741 79.7013 507.773 80.4693 507.837 81.024H507.101C506.717 78.5493 506.003 76.7787 504.957 75.712C503.912 74.624 502.664 74.08 501.213 74.08H500.797C500.221 74.08 499.795 74.1333 499.517 74.24C499.261 74.3253 499.08 74.5067 498.973 74.784C498.888 75.04 498.845 75.4773 498.845 76.096V84.288H499.165C500.275 84.288 501.224 83.8507 502.013 82.976C502.803 82.1013 503.304 81.1307 503.517 80.064H504.253C504.189 80.96 504.157 81.9627 504.157 83.072V84.608C504.157 85.696 504.221 87.2107 504.349 89.152H503.613C503.421 87.936 502.92 86.9333 502.109 86.144C501.32 85.3333 500.339 84.928 499.165 84.928H498.845V93.248C498.845 93.8667 498.888 94.3147 498.973 94.592C499.08 94.848 499.261 95.0293 499.517 95.136C499.795 95.2213 500.221 95.264 500.797 95.264H501.853C503.091 95.264 504.264 94.6667 505.373 93.472C506.483 92.256 507.272 90.3253 507.741 87.68H508.477C508.413 88.448 508.381 89.4293 508.381 90.624Z" fill="black"/>
</g>
<defs>
<clipPath id="clip0_5_13">
<rect width="516" height="107" fill="white"/>
</clipPath>
</defs>
</svg>
