<svg width="480" height="95" viewBox="0 0 480 95" fill="none" xmlns="http://www.w3.org/2000/svg">
<path d="M87.4328 93.825H4.10757C2.46454 93.825 1.17358 92.5325 1.17358 90.8875V5.1125C1.17358 3.4675 2.46454 2.175 4.10757 2.175H87.4328C89.0758 2.175 90.3667 3.4675 90.3667 5.1125V90.8875C90.3667 92.5325 89.0758 93.825 87.4328 93.825Z" stroke="#7C9BD0" stroke-width="2" stroke-miterlimit="10"/>
<path d="M52.9291 40.01C52.577 40.01 52.577 36.8375 50.3472 32.96C49.4083 31.1975 49.1736 31.6675 45.4181 26.9675C42.9535 23.9125 42.4841 23.09 40.8411 21.5625C38.7286 19.6825 37.6724 18.625 36.1467 18.5075C33.5648 18.2725 31.5697 20.27 29.1051 22.7375C26.4059 25.5575 24.8802 28.1425 23.0024 31.4325C21.3594 34.37 19.8337 36.955 18.5428 40.715C17.2518 44.3575 16.1956 47.4125 16.313 51.525C16.4303 54.58 17.1345 57.0475 17.8386 59.28C18.0733 59.8675 18.1907 60.3375 20.4205 65.9775C23.0024 72.44 23.3545 73.145 23.7066 73.85C25.3496 77.2575 26.4059 78.785 26.1711 78.9025C25.8191 79.1375 23.2372 76.7875 21.242 73.7325C20.3032 72.205 19.8337 71.265 17.4865 65.5075C14.5526 58.4575 14.4352 57.9875 14.2005 57.0475C13.6137 54.815 12.7922 51.995 12.9095 48.1175C12.9095 44.24 13.8484 41.3025 14.2005 39.8925C15.022 37.3075 16.0782 35.6625 18.0733 32.3725C20.6553 28.1425 23.0024 25.205 24.6455 23.2075C26.4059 21.0925 28.2836 18.9775 30.9829 16.745C34.0342 14.2775 35.0905 14.0425 35.912 14.0425C38.1418 14.0425 39.7848 15.805 41.7799 18.0375C44.5966 21.0925 44.2445 22.15 47.1785 26.0275C50.1125 29.7875 51.0513 29.67 52.1076 32.255C53.9853 36.015 53.3985 40.01 52.9291 40.01Z" fill="#7C9BD0"/>
<path d="M18.8949 84.895C22.2983 82.545 25.3496 80.43 28.1663 78.6675C32.2738 75.965 34.0342 74.9075 36.7335 74.555C37.9071 74.32 39.7848 74.2025 42.8362 74.9075C48.3521 76.0825 50.5819 78.08 55.9804 80.9C62.2005 83.955 66.4254 86.07 71.7066 85.4825C76.8704 84.895 80.8606 81.9575 80.7433 81.605C80.6259 81.37 77.8093 83.015 73.5844 83.3675C69.2421 83.72 65.8386 82.31 61.0269 80.3125C55.0416 77.845 50.1125 74.555 49.7604 74.32C45.066 71.1475 44.4792 69.855 42.0147 69.62C39.4328 69.385 36.9682 70.6775 32.2738 73.38C30.3961 74.4375 27.8142 75.965 24.8802 78.55C22.1809 80.7825 20.3032 83.1325 18.8949 84.895Z" fill="#7C9BD0"/>
<path d="M54.6895 31.315C54.9242 31.55 56.4499 29.435 59.6186 27.085C62.0831 25.205 63.3741 24.265 65.0171 24.3825C67.8337 24.5 69.7115 27.32 71.1198 29.3175C73.467 32.725 74.0538 35.8975 74.5232 38.365C74.7579 39.775 75.4621 43.77 74.6406 48.94C74.0538 52.8175 73.1149 55.6375 71.3545 60.1025C69.5941 65.0375 68.6552 66.2125 68.0684 69.62C67.3643 73.4975 67.599 77.2575 67.9511 77.2575C68.4205 77.2575 68.6552 73.38 70.7677 67.3875C72.0587 63.745 72.176 64.45 74.7579 57.87C75.5795 55.755 76.9878 52.23 78.2787 47.765C78.9829 45.2975 79.335 44.1225 79.4523 43.3C79.8044 39.54 78.5134 36.6025 76.6357 32.49C75.11 29.0825 75.11 30.2575 71.7066 23.9125C69.4768 19.8 69.0073 18.5075 67.3643 17.92C65.0171 17.0975 62.3178 18.7425 61.0269 20.035C59.7359 21.3275 59.8533 22.0325 57.7408 25.7925C55.8631 29.3175 54.4548 31.08 54.6895 31.315Z" fill="#7C9BD0"/>
<path d="M106.273 48.251C106.603 44.6558 106.768 38.4116 106.768 29.5183V19.4896C106.768 15.3268 106.603 11.9208 106.273 8.89328C106.108 7.1903 105.943 6.24425 105.613 5.86581C105.282 5.67659 104.457 5.29811 102.806 5.10889L100 4.73048V2.45982C103.797 2.64904 106.438 2.64905 107.758 2.64905H117.003L124.596 2.45982C127.567 2.45982 130.704 2.64904 134.005 3.40592C137.142 3.97358 140.113 5.29813 142.754 7.37954C145.395 9.27174 147.376 11.7316 148.697 14.7591C150.017 17.7866 150.678 21.0033 150.678 24.9769C150.678 32.7349 148.036 39.1684 142.754 44.2774C137.472 49.3863 130.704 51.8461 122.12 51.8461L117.828 51.6569C113.701 51.4677 111.06 51.4677 109.904 51.4677C108.089 51.4677 105.613 51.6569 102.806 51.8461V50.1432L106.273 48.251ZM113.701 48.0618C116.838 48.4402 119.644 48.8186 121.955 48.8186C128.393 48.8186 133.51 47.1156 136.977 43.8989C141.268 39.9253 143.414 34.0595 143.414 26.3015C143.414 19.4896 141.599 14.3807 137.967 10.9747C134.335 7.37953 129.053 5.67658 122.12 5.67658C119.644 5.67658 116.838 5.86579 113.536 6.43345C113.206 8.70408 113.041 11.1639 113.041 14.0022V36.7086C113.371 40.493 113.536 44.4666 113.701 48.0618Z" fill="#7C9BD0"/>
<path d="M166.69 26.1123C167.68 25.1662 168.671 24.0309 169.661 22.7063C170.982 21.0034 172.137 19.868 173.293 19.3004C174.448 18.7327 175.604 18.3543 176.759 18.3543C178.08 18.3543 179.07 18.5435 179.731 18.7327C180.061 18.9219 180.226 19.1111 180.226 19.3004V19.6788C179.896 21.571 179.731 24.2201 179.566 27.4368H178.08C177.585 26.3015 176.924 25.3554 176.264 24.9769C175.604 24.5985 174.613 24.2201 173.623 24.2201C172.302 24.2201 170.982 24.5985 169.826 25.5446C168.671 26.4907 167.845 27.8153 167.515 29.329C167.185 31.032 166.855 34.2487 166.855 39.1684C166.855 42.3851 167.02 45.0343 167.185 47.3049C167.35 48.0618 167.515 48.6294 167.845 48.8186C168.671 49.3863 169.991 49.5755 171.807 49.5755H173.953V51.6569C170.487 51.4677 167.02 51.4677 163.884 51.4677C160.747 51.4677 157.776 51.4677 154.805 51.6569V49.5755L158.106 49.3863C159.261 49.3863 160.087 49.0078 160.417 48.8186C160.747 48.4402 160.912 47.3049 161.077 45.4127C161.242 42.0067 161.242 38.2223 161.242 33.4918C161.242 28.0045 161.077 24.5985 160.582 23.6524C160.252 23.0848 159.261 22.7063 157.776 22.7063H154.805V20.6249C157.116 20.4357 159.096 20.0573 160.747 19.6788C162.563 19.3004 164.049 18.7328 165.369 18.1651C165.699 17.9759 166.03 17.9759 166.195 17.9759C166.525 17.9759 166.69 17.9759 166.69 18.1651C166.855 18.3543 166.855 18.5435 166.855 19.1112L166.69 26.1123Z" fill="#7C9BD0"/>
<path d="M232.554 4.91974C231.894 7.37959 231.564 10.4071 231.564 14.3807H229.253V11.5424C229.253 9.65023 229.088 8.51486 228.592 7.9472C228.097 7.37954 226.777 6.62271 224.796 5.86583C222.815 5.10896 220.669 4.73051 218.358 4.73051C214.726 4.73051 211.755 5.6766 209.609 7.5688C207.463 9.46099 206.473 11.9208 206.473 14.7591C206.473 16.6513 206.968 18.1651 207.793 19.4896C208.619 20.8141 209.774 21.7602 211.26 22.3279C212.745 22.8956 215.882 23.4633 220.669 23.8417C225.456 24.2201 228.592 24.977 230.243 25.7339C231.894 26.4908 233.215 27.6261 234.205 29.329C235.195 31.032 235.691 32.9242 235.691 35.384C235.691 40.1145 233.71 44.0882 229.913 47.3049C225.951 50.7109 220.834 52.4138 214.396 52.4138C212.25 52.4138 209.939 52.2246 207.628 51.6569C205.317 51.2785 203.171 50.5216 200.86 49.5755C201.355 46.7372 201.52 43.3313 201.52 38.9793H203.831V40.6822C203.831 42.9529 203.996 44.2774 204.162 44.845C204.327 45.4127 204.987 45.9804 205.812 46.548C207.133 47.4941 208.619 48.0617 210.269 48.6294C212.085 49.1971 213.901 49.3863 215.882 49.3863C220.174 49.3863 223.64 48.4402 225.951 46.3588C228.262 44.2774 229.583 41.6283 229.583 38.6008C229.583 36.7086 229.253 35.1948 228.427 33.8703C227.602 32.5458 226.447 31.5997 224.961 31.032C223.475 30.4644 220.834 29.8967 216.872 29.7075C211.59 29.329 208.123 28.7614 206.308 27.8153C204.492 27.0584 203.006 25.7339 201.851 23.8417C200.86 22.1387 200.2 19.8681 200.2 17.219C200.2 12.6777 201.851 9.08253 205.152 6.24424C208.453 3.40595 212.91 1.89221 218.688 1.89221C220.999 1.89221 223.31 2.08142 225.621 2.64908C227.767 3.02752 230.243 3.78442 232.554 4.91974Z" fill="#7C9BD0"/>
<path d="M241.468 27.6261V25.3554V22.8956L245.265 20.8141C246.916 19.868 248.401 19.1112 249.722 18.7327C251.043 18.3543 252.363 18.1651 253.849 18.1651C256.985 18.1651 259.626 18.9219 261.607 20.2465C263.588 21.7602 264.744 23.4632 265.074 25.7339C265.404 27.4368 265.569 31.4105 265.569 38.0331C265.569 44.2774 265.734 47.6833 266.064 48.251C266.229 48.8186 266.89 49.1971 267.715 49.1971H270.356V51.4677C267.715 51.2785 265.899 51.2785 264.909 51.2785C263.588 51.2785 261.937 51.2785 259.791 51.4677V48.4402C259.791 47.4941 259.791 46.3588 259.791 45.4127L252.693 50.9C252.033 51.4677 251.373 51.6569 250.712 51.8461C250.052 52.0354 249.227 52.2246 248.071 52.2246C245.1 52.2246 242.789 51.4677 241.303 49.9539C239.652 48.4402 238.992 46.548 238.992 44.0881C238.992 41.8175 239.487 39.7361 240.643 38.0331C241.798 36.3302 243.284 35.0056 245.43 34.2487C247.576 33.4919 252.363 32.3565 259.791 31.032C259.791 28.1937 259.131 25.9231 257.811 24.4093C256.16 22.5171 254.014 21.7602 251.043 21.7602C249.887 21.7602 248.897 21.9494 247.906 22.1386C246.916 22.3279 246.09 22.8955 245.265 23.274C244.605 24.977 243.944 26.4907 243.449 28.0045L241.468 27.6261ZM259.626 33.3026C253.189 34.6272 249.062 35.9517 247.411 37.2762C245.76 38.4115 244.77 40.3037 244.77 42.9528C244.77 44.6558 245.265 45.9803 246.255 47.1157C247.246 48.0618 248.566 48.6294 250.052 48.6294C251.703 48.6294 253.519 48.0618 255.004 47.1157C256.655 46.1696 258.141 44.6558 259.461 42.7636V35.1948L259.626 33.3026Z" fill="#7C9BD0"/>
<path d="M297.098 21.0034V18.922C299.409 19.1112 301.555 19.1112 303.536 19.1112C305.682 19.1112 307.993 19.1112 310.469 18.922V21.0034H309.314C308.818 21.0034 308.323 21.1926 307.828 21.3818C307.498 21.571 307.168 21.7603 307.003 21.9495C306.838 22.1387 306.012 23.8417 304.527 26.68C301.885 31.9781 299.904 36.3301 298.584 39.3576C297.263 42.3852 295.447 46.7372 293.301 52.0354H289.67C286.699 44.4666 283.562 37.087 280.261 29.8967C279.105 27.2476 278.445 25.5446 278.115 24.7878C277.619 23.274 276.959 22.3279 276.464 21.7602C275.804 21.1926 274.978 21.0034 273.988 21.0034H272.832V18.922C276.299 19.1112 279.105 19.1112 281.251 19.1112C283.727 19.1112 286.368 19.1112 289.175 18.922V21.0034H287.689C286.203 21.0034 285.213 21.1926 284.718 21.3818C284.387 21.571 284.057 21.9494 284.057 22.3279C284.057 22.7063 284.222 23.4632 284.718 24.7878C285.213 25.9231 287.854 32.9242 293.136 45.7911L299.409 30.8428C300.895 27.4368 301.72 24.977 302.05 23.6524C302.215 23.274 302.215 22.8956 302.215 22.7063C302.215 22.3279 302.05 21.9495 301.72 21.7602C301.39 21.571 300.565 21.3818 299.409 21.1926L297.098 21.0034Z" fill="#7C9BD0"/>
<path d="M325.326 34.4379V38.79C325.326 44.6558 325.491 47.8725 325.821 48.6294C326.151 49.3863 327.307 49.7647 329.288 49.7647H331.434V51.8462H329.618C326.316 51.6569 324.005 51.6569 323.015 51.6569L313.771 51.8462V49.7647H315.752C317.567 49.7647 318.558 49.3863 318.888 48.8186C319.218 48.0617 319.383 44.845 319.383 38.9792V18.3543C319.383 10.7855 319.218 6.43345 318.888 5.48736C318.723 4.9197 317.732 4.73049 316.247 4.73049H313.275V2.64906C315.256 2.64906 318.063 2.08143 321.529 1.13533L324.996 0C325.326 0 325.491 0.189208 325.491 0.756867L325.326 4.1628C325.326 5.10889 325.161 9.83939 325.161 18.5435V32.3566L325.656 32.5457C327.802 31.032 329.618 29.5183 330.938 28.3829C331.764 27.8153 333.414 26.1123 336.056 23.4632L341.008 18.7327H347.941V20.8142H346.62C345.795 20.8142 344.805 21.1926 343.484 21.9495C341.008 23.4632 336.881 26.68 331.103 31.4105C335.395 35.9517 338.036 38.6008 339.027 39.5469C343.649 43.7097 346.455 46.3588 347.446 47.1157C347.941 47.4941 348.436 47.8725 348.931 48.0618C349.427 48.251 349.922 48.4402 350.747 48.4402V49.954C348.766 50.9001 346.62 51.657 344.144 52.2246C342.824 51.0893 339.522 48.0617 334.57 42.9528C330.938 39.1684 327.802 36.3302 325.491 34.2488H325.326V34.4379Z" fill="#7C9BD0"/>
<path d="M354.049 35.1948C354.049 31.9781 354.709 29.1398 356.195 26.4907C357.68 23.8417 359.826 21.9494 362.467 20.4357C365.109 18.9219 368.245 18.1651 371.546 18.1651C376.499 18.1651 380.46 19.6788 383.432 22.5171C386.403 25.3554 387.889 29.329 387.889 34.0595C387.889 39.7361 385.908 44.2773 382.111 47.6833C378.645 50.7108 374.518 52.2246 369.731 52.2246C365.109 52.2246 361.312 50.7108 358.506 47.4941C355.369 44.6558 354.049 40.493 354.049 35.1948ZM360.486 32.735C360.486 37.4654 361.477 41.6283 363.458 45.0342C365.439 48.4402 368.245 50.1432 371.877 50.1432C374.683 50.1432 376.994 49.0078 378.645 46.9264C380.295 44.845 381.286 41.6283 381.286 37.2762C381.286 33.8703 380.791 30.8428 379.8 28.1937C378.81 25.7338 377.489 23.8417 375.838 22.7063C374.188 21.571 372.372 21.0034 370.226 21.0034C368.41 21.0034 366.759 21.3818 365.274 22.3279C363.788 23.274 362.798 24.4093 361.972 26.1123C360.982 28.0045 360.486 30.2751 360.486 32.735Z" fill="#7C9BD0"/>
<path d="M415.291 21.0034V18.922C417.602 19.1112 419.748 19.1112 421.729 19.1112C423.875 19.1112 426.186 19.1112 428.662 18.922V21.0034H427.506C427.011 21.0034 426.516 21.1926 426.021 21.3818C425.691 21.571 425.361 21.7603 425.195 21.9495C425.03 22.1387 424.205 23.8417 422.719 26.68C420.078 31.9781 418.097 36.3301 416.777 39.3576C415.456 42.3852 413.64 46.7372 411.494 52.0354H407.863C404.891 44.4666 401.755 37.087 398.453 29.8967C397.298 27.2476 396.638 25.5446 396.308 24.7878C395.812 23.274 395.152 22.3279 394.657 21.7602C393.996 21.1926 393.171 21.0034 392.181 21.0034H391.025V18.922C394.492 19.1112 397.298 19.1112 399.444 19.1112C401.92 19.1112 404.561 19.1112 407.367 18.922V21.0034H405.882C404.396 21.0034 403.406 21.1926 402.91 21.3818C402.58 21.571 402.25 21.9494 402.25 22.3279C402.25 22.7063 402.415 23.4632 402.91 24.7878C403.406 25.9231 406.047 32.9242 411.329 45.7911L417.602 30.8428C419.088 27.4368 419.913 24.977 420.243 23.6524C420.408 23.274 420.408 22.8956 420.408 22.7063C420.408 22.3279 420.243 21.9495 419.913 21.7602C419.583 21.571 418.758 21.3818 417.602 21.1926L415.291 21.0034Z" fill="#7C9BD0"/>
<path d="M443.354 18.1651L444.179 18.7327C444.014 20.4357 443.849 22.3279 443.849 24.4093C443.684 31.2212 443.684 36.1409 443.684 39.3576C443.684 42.3851 443.849 44.845 444.014 47.1156C444.179 47.8725 444.344 48.4402 444.674 48.8186C445.004 49.1971 445.83 49.3863 447.15 49.5755L449.461 49.9539V52.0354C446.16 51.8461 443.023 51.8461 440.217 51.8461C437.411 51.8461 434.77 51.8461 431.963 52.0354V49.9539L434.935 49.5755C436.09 49.5755 436.751 49.1971 437.081 49.0078C437.411 48.6294 437.576 47.4941 437.576 45.6019C437.741 42.5744 437.741 38.6007 437.741 33.4918C437.741 29.8966 437.741 27.0584 437.576 25.1662C437.576 24.4093 437.246 24.0309 436.916 23.6524C436.586 23.274 435.76 23.274 434.44 23.274H431.798V21.1925C434.605 20.8141 436.751 20.4357 438.071 20.0573C439.557 19.4896 441.373 18.922 443.354 18.1651ZM440.547 2.83829C441.538 2.83829 442.528 3.21674 443.354 3.97362C444.179 4.73049 444.509 5.67659 444.509 6.81191C444.509 7.94723 444.179 8.89332 443.354 9.6502C442.528 10.4071 441.703 10.7855 440.547 10.7855C439.392 10.7855 438.566 10.4071 437.741 9.6502C436.916 8.89332 436.586 7.94723 436.586 6.81191C436.586 5.67659 436.916 4.73049 437.741 3.97362C438.566 3.21674 439.557 2.83829 440.547 2.83829Z" fill="#7C9BD0"/>
<path d="M479.01 46.9264L480 47.6833L478.514 49.954C476.864 50.9001 475.378 51.4677 473.727 51.8462C472.076 52.2246 470.426 52.4138 468.61 52.4138C465.143 52.4138 462.337 51.8461 460.026 50.5216C457.715 49.1971 455.899 47.3049 454.579 44.845C453.258 42.3852 452.598 39.5469 452.598 36.141C452.598 33.1134 453.093 30.6536 454.083 28.3829C455.074 26.1123 456.394 24.4093 458.21 23.274C460.026 21.9495 462.172 20.8142 464.978 19.6788C466.794 18.7327 468.94 18.3543 471.251 18.3543C473.067 18.3543 474.553 18.5435 475.873 18.7327C477.194 19.1112 478.514 19.4896 480 20.2465C479.505 23.274 479.175 26.3015 479.01 29.329H476.864V27.6261C476.864 26.1123 476.699 25.1662 476.203 24.4093C475.708 23.6524 474.883 23.274 473.232 22.5171C471.746 21.9495 470.096 21.571 468.28 21.571C465.143 21.571 462.832 22.5171 461.016 24.4093C459.366 26.3015 458.54 29.1398 458.54 32.9242C458.54 37.8439 459.861 41.6283 462.337 44.6558C464.648 47.3049 467.454 48.6294 470.921 48.6294C472.242 48.6294 473.727 48.4402 475.048 48.0618C476.368 48.0618 477.689 47.4941 479.01 46.9264ZM465.473 15.7052H463.162L473.397 5.86583C474.222 5.10895 474.883 4.54126 475.213 4.35204C475.543 4.16282 476.038 3.97363 476.533 3.97363C477.194 3.97363 477.689 4.16283 478.184 4.54127C478.679 4.91971 478.844 5.48734 478.844 6.055C478.844 6.62266 478.679 7.19035 478.184 7.56879C477.689 8.13645 476.698 8.8933 474.883 9.83939L465.473 15.7052Z" fill="#7C9BD0"/>
<path d="M105.681 94.2421V93.4842C106.192 92.9789 106.703 92.7263 106.873 92.4737C107.044 90.4526 107.044 86.9157 107.044 81.6105C107.044 79.3368 107.044 77.3158 107.044 75.8C107.044 74.2842 106.873 73.2737 106.873 73.2737C106.873 73.2737 106.873 73.021 106.703 73.021C106.533 73.021 106.022 72.7684 105 72.5158V71.2526C106.192 71.2526 107.555 71.2526 109.258 71.2526H115.218C117.432 71.2526 118.965 71.5053 120.157 72.2632C121.349 73.0211 122.2 74.0315 122.882 75.5473C123.563 77.0631 123.903 78.8316 123.903 81.1053C123.903 83.8842 123.392 86.4105 122.371 88.4316C121.349 90.4526 120.157 91.9684 118.624 92.7263C117.091 93.4842 115.559 93.9895 113.856 93.9895H109.258C108.236 94.2421 107.214 94.2421 105.681 94.2421ZM110.62 92.221C111.301 92.4737 111.982 92.4737 112.664 92.4737C114.537 92.4737 115.899 92.2211 116.751 91.4632C117.773 90.7053 118.454 89.6947 118.965 87.9263C119.475 86.4105 119.816 84.3895 119.816 82.1158C119.816 79.0842 119.305 76.8105 118.113 75.0421C117.091 73.5263 115.388 73.021 113.174 73.021C112.663 73.021 111.812 73.021 110.62 73.2737L110.45 83.3789C110.45 87.6737 110.45 90.7053 110.62 92.221Z" fill="#7C9BD0"/>
<path d="M141.103 94.2421V93.2316C141.614 92.9789 141.954 92.7263 142.295 92.221C142.465 90.4526 142.465 86.9158 142.465 81.3579C142.465 77.5684 142.465 75.0421 142.465 74.0315C142.465 73.2736 142.295 73.021 142.295 72.7684C142.124 72.5157 141.614 72.5158 140.421 72.2632V71C142.295 71 143.827 71.2526 144.849 71.2526L151.491 71C152.172 71 152.853 71 153.364 71V71.2526C153.194 72.5158 153.024 74.0316 153.024 76.0526H152.002C152.002 74.5368 151.832 73.5263 151.832 73.5263C151.832 73.5263 151.661 73.2737 151.321 73.2737C150.639 73.021 149.618 73.021 148.255 73.021C147.574 73.021 146.723 73.021 145.871 73.021C145.701 76.3052 145.701 79.0842 145.701 81.1053C146.552 81.1053 147.404 81.1053 148.085 81.1053C149.277 81.1053 149.958 81.1053 150.129 80.8526C150.299 80.8526 150.299 80.6 150.469 80.3473C150.469 80.0947 150.639 79.3368 150.639 78.3263H151.661C151.661 80.0947 151.661 81.3579 151.661 81.8631V85.6526H150.639C150.639 84.1368 150.469 83.3789 150.469 83.1263C150.469 82.8737 150.299 82.8736 150.129 82.8736C149.788 82.8736 148.766 82.6211 147.404 82.6211C146.893 82.6211 146.382 82.6211 145.871 82.6211C145.871 83.1263 145.871 83.8842 145.871 84.3894C145.871 87.421 145.871 89.9474 146.041 91.4632H148.426C149.788 91.4632 150.98 91.4632 152.172 91.2105C152.342 90.2 152.513 88.9369 152.683 87.6737H153.705C153.535 89.6948 153.364 91.4631 153.364 93.2316C152.683 93.2316 152.002 93.2316 151.321 93.2316C150.81 93.2316 149.958 93.2316 148.766 93.2316C147.574 93.2316 146.382 93.2316 145.36 93.2316C144.168 94.2421 142.635 94.2421 141.103 94.2421Z" fill="#7C9BD0"/>
<path d="M170.396 94.2421V92.9789C171.417 92.9789 171.928 92.7263 172.099 92.7263C172.269 92.7263 172.269 92.4737 172.269 92.221C172.439 91.9684 172.439 90.9579 172.439 89.4421C172.439 86.9157 172.439 84.8947 172.439 83.6316V76.8105C172.439 75.0421 172.439 74.0316 172.269 73.5263C172.269 73.2737 172.099 73.2737 172.099 73.2737C171.928 73.021 171.247 73.021 170.225 73.021V71.7579C171.417 71.7579 172.439 71.7579 172.95 71.7579C173.631 71.7579 174.312 71.7579 175.164 71.7579C177.037 75.0421 179.081 78.5789 181.465 82.1158C182.998 84.6421 184.36 86.6631 185.552 88.4316V81.8631C185.552 79.3368 185.552 77.3157 185.552 75.5473C185.552 74.5368 185.382 73.7789 185.382 73.5263C185.382 73.2737 185.212 73.2737 185.041 73.2737C184.871 73.2737 184.36 73.021 183.338 73.021V71.7579C184.19 71.7579 185.041 71.7579 185.893 71.7579C187.085 71.7579 188.107 71.7579 189.129 71.7579V73.021C188.277 73.021 187.766 73.2737 187.426 73.2737C187.255 73.2737 187.255 73.5263 187.255 73.5263L187.085 73.779C187.085 74.0316 186.915 74.7895 186.915 76.3053V82.8736V89.4421C186.915 91.2105 186.915 92.9789 186.915 94.7473L186.744 95C185.723 94.7474 185.041 94.4947 184.701 94.4947C182.657 91.4631 180.103 87.421 177.208 82.8736C175.675 80.5999 174.483 78.5789 173.631 76.8105V83.1263C173.631 84.8947 173.631 86.9157 173.631 89.4421C173.631 91.2105 173.631 92.221 173.802 92.4737L173.972 92.7263C174.142 92.7263 174.653 92.9789 175.675 92.9789V94.2421C174.312 94.2421 173.461 94.2421 172.95 94.2421C172.95 94.2421 171.928 94.2421 170.396 94.2421Z" fill="#7C9BD0"/>
<path d="M209.224 94.2421V92.9789C209.735 92.9789 210.246 92.979 210.586 92.7263C210.757 92.7263 210.927 92.4737 211.097 92.4737C211.268 92.4737 211.268 92.221 211.268 91.7157C211.268 91.2105 211.438 89.4421 211.438 86.6631C211.438 84.642 211.438 82.3684 211.438 80.0947C211.438 75.8 211.438 73.5263 211.438 73.5263C211.438 73.5263 211.097 73.5263 210.586 73.5263C209.394 73.5263 208.543 73.5263 207.691 73.7789C207.18 73.7789 207.01 73.7789 206.84 74.0315L206.669 74.2842C206.669 74.5368 206.499 75.2947 206.499 77.0631H205.477C205.477 75.0421 205.477 73.2736 205.307 71.7579L205.477 71.5052C208.032 71.7578 210.416 71.7579 212.971 71.7579C215.355 71.7579 218.08 71.7578 220.975 71.5052L221.145 71.7579C220.975 73.2736 220.804 75.0421 220.804 77.0631H219.783C219.783 75.2947 219.612 74.2842 219.612 74.0315C219.612 74.0315 219.442 73.7789 219.272 73.7789C218.59 73.5263 217.398 73.5263 215.355 73.5263C215.184 73.5263 215.014 73.5263 215.014 73.5263C215.014 73.5263 215.014 73.7789 215.014 74.2842V85.3999C215.014 88.6842 215.014 90.4526 215.014 91.2105C215.014 91.9684 215.184 92.4737 215.355 92.4737C215.525 92.4737 216.036 92.7263 217.228 92.7263V93.9895C216.036 93.9895 214.844 93.9895 213.481 93.9895C211.778 94.2421 210.246 94.2421 209.224 94.2421Z" fill="#7C9BD0"/>
<path d="M237.154 92.7263C237.835 92.7263 238.346 92.4737 238.516 92.4737C238.687 92.4737 238.857 91.9684 239.027 91.2105C239.538 89.6947 240.219 87.9263 240.9 85.4L245.158 71.2526H246.861L252.311 88.9369C252.992 91.2105 253.503 92.4737 253.673 92.4737C253.843 92.7263 254.354 92.7263 255.206 92.9789V94.4947C253.843 94.4947 252.651 94.4947 251.459 94.4947C250.097 94.4947 248.734 94.4947 247.542 94.4947V92.9789C248.564 92.9789 249.075 92.979 249.245 92.7263C249.415 92.7263 249.415 92.4737 249.415 92.221C249.415 91.9684 249.245 91.2105 248.905 90.2L248.053 87.4211C247.031 87.4211 246.009 87.4211 244.647 87.4211C243.625 87.4211 242.603 87.4211 241.752 87.4211L241.241 89.1894C241.071 89.6947 240.9 90.4527 240.73 91.4632C240.73 91.7158 240.73 91.9684 240.73 91.9684C240.73 92.221 240.73 92.4737 240.9 92.4737C241.071 92.4737 241.582 92.7263 242.603 92.7263V94.2421C241.752 94.2421 240.9 94.2421 239.708 94.2421C238.516 94.2421 237.665 94.2421 236.984 94.2421L237.154 92.7263ZM245.158 77.0631L242.603 85.4C243.285 85.4 244.136 85.4 244.988 85.4C246.009 85.4 246.861 85.4 247.712 85.4L245.158 77.0631Z" fill="#7C9BD0"/>
<path d="M272.235 94.2421V93.4842C272.746 93.2316 273.087 92.9789 273.427 92.4737C273.598 89.4421 273.598 86.4105 273.598 83.1263C273.598 80.6 273.598 78.3263 273.598 76.0526C273.598 74.5368 273.598 73.5263 273.427 73.2737C273.427 73.021 273.257 73.021 273.257 73.021C273.087 73.021 272.576 72.7684 271.554 72.7684V71.5052C273.087 71.5052 274.619 71.5052 275.812 71.5052C277.174 71.5052 278.366 71.5052 279.558 71.5052V72.7684C278.366 72.7684 277.855 73.021 277.685 73.2737C277.515 73.2737 277.515 73.5263 277.515 73.7789C277.515 74.0316 277.515 75.7999 277.344 79.0842V87.1684C277.344 88.6842 277.344 90.4526 277.344 92.4737C278.366 92.4737 279.218 92.4737 279.728 92.4737C281.261 92.4737 282.453 92.221 283.645 91.9684C283.816 90.9579 283.986 89.6947 284.327 88.4316H285.348C285.178 89.9473 285.008 91.9684 284.837 94.2421C284.156 94.2421 283.305 94.2421 282.794 94.2421H278.366H276.322C275.301 94.2421 273.938 94.2421 272.235 94.2421Z" fill="#7C9BD0"/>
<path d="M325.708 94.7474C322.813 94.7474 320.429 93.7368 318.896 91.7157C317.363 89.6947 316.512 86.9158 316.512 83.1263C316.512 80.6 316.853 78.3263 317.704 76.5578C318.556 74.7894 319.577 73.5263 320.94 72.5158C322.302 71.5053 324.005 71 326.219 71C328.263 71 329.966 71.5053 331.328 72.2632C332.69 73.2737 333.712 74.5368 334.393 76.0526C335.075 77.5684 335.415 79.5895 335.415 82.1158C335.415 84.6421 335.075 86.9158 334.223 88.6842C333.372 90.4526 332.35 91.9684 330.987 92.9789C329.284 94.2421 327.581 94.7474 325.708 94.7474ZM326.049 92.9789C327.752 92.9789 328.944 92.221 329.966 90.4526C330.987 88.9368 331.328 86.4105 331.328 83.1263C331.328 79.5894 330.817 77.0632 329.625 75.0421C328.774 73.5263 327.411 72.7684 325.538 72.7684C323.835 72.7684 322.472 73.5263 321.451 75.0421C320.429 76.5579 320.088 79.0842 320.088 82.3684C320.088 84.6421 320.429 86.6631 320.94 88.4316C321.451 89.9474 322.132 91.2105 322.983 91.9684C323.835 92.4737 324.857 92.9789 326.049 92.9789Z" fill="#7C9BD0"/>
<path d="M351.935 94.2421V92.9789C352.957 92.9789 353.638 92.979 353.809 92.7263C353.979 92.4737 353.979 92.2211 353.979 91.4632C354.149 89.4421 354.149 86.9157 354.149 84.1368C354.149 82.1157 354.149 79.8421 354.149 77.5684C354.149 75.2947 353.979 73.7789 353.979 73.5263C353.979 73.2737 353.809 73.2737 353.809 73.2737C353.638 73.2737 353.127 73.021 352.106 73.021V71.7579C353.468 71.7579 354.66 71.7579 355.682 71.7579C357.215 71.7579 358.747 71.7579 360.28 71.7579C361.302 71.7579 362.324 71.7579 363.005 71.7579C363.516 71.7579 364.027 71.7579 364.538 71.7579L364.708 72.0105C364.538 73.2737 364.367 75.0421 364.367 76.8105H363.345L363.175 75.0421C363.175 74.5368 363.175 74.0315 363.005 74.0315C362.835 74.0315 362.664 73.7789 362.153 73.5263C361.642 73.2737 360.961 73.2737 359.939 73.2737C359.258 73.2737 358.577 73.2737 357.726 73.5263C357.555 75.2947 357.555 76.8105 357.555 77.5684V81.1053V81.8631C358.066 81.8631 358.577 81.8631 359.258 81.8631C360.45 81.8631 361.302 81.8631 361.472 81.8631C361.642 81.8631 361.642 81.6105 361.813 81.6105C361.983 81.3578 361.983 80.6 361.983 79.5894H363.005C363.005 80.6 363.005 81.6105 363.005 82.3684C363.005 83.3789 363.005 84.642 363.005 86.6631H361.983C361.983 85.1473 361.813 84.3894 361.813 84.1368C361.813 83.8842 361.642 83.8842 361.472 83.8842C361.132 83.6316 360.28 83.6316 359.088 83.6316H357.555V89.9474C357.555 91.4631 357.726 92.221 357.726 92.4737C357.726 92.7263 357.896 92.7263 357.896 92.7263C358.066 92.7263 358.747 92.9789 359.939 92.9789V94.2421C358.577 94.2421 357.385 94.2421 356.363 94.2421C355.341 94.2421 353.809 94.2421 351.935 94.2421Z" fill="#7C9BD0"/>
<path d="M380.546 94.2421V92.9789C381.568 92.9789 382.249 92.979 382.419 92.7263C382.589 92.4737 382.589 92.2211 382.589 91.4632C382.76 89.4421 382.76 86.9157 382.76 84.1368C382.76 82.1157 382.76 79.8421 382.76 77.5684C382.76 75.2947 382.589 73.7789 382.589 73.5263C382.589 73.2737 382.419 73.2737 382.419 73.2737C382.249 73.2737 381.738 73.021 380.716 73.021V71.7579C382.078 71.7579 383.271 71.7579 384.292 71.7579C385.825 71.7579 387.358 71.7579 388.89 71.7579C389.912 71.7579 390.934 71.7579 391.615 71.7579C392.126 71.7579 392.637 71.7579 393.148 71.7579L393.318 72.0105C393.148 73.2737 392.978 75.0421 392.978 76.8105H391.956L391.785 75.0421C391.785 74.5368 391.785 74.0315 391.615 74.0315C391.445 74.0315 391.275 73.7789 390.764 73.5263C390.253 73.2737 389.572 73.2737 388.55 73.2737C387.869 73.2737 387.187 73.2737 386.336 73.5263C386.166 75.2947 386.166 76.8105 386.166 77.5684V81.1053V81.8631C386.677 81.8631 387.187 81.8631 387.869 81.8631C389.061 81.8631 389.912 81.8631 390.082 81.8631C390.253 81.8631 390.253 81.6105 390.423 81.6105C390.593 81.3578 390.593 80.6 390.593 79.5894H391.615C391.615 80.6 391.615 81.6105 391.615 82.3684C391.615 83.3789 391.615 84.642 391.615 86.6631H390.593C390.593 85.1473 390.423 84.3894 390.423 84.1368C390.423 83.8842 390.253 83.8842 390.082 83.8842C389.742 83.6316 388.89 83.6316 387.698 83.6316H386.166V89.9474C386.166 91.4631 386.336 92.221 386.336 92.4737C386.336 92.7263 386.506 92.7263 386.506 92.7263C386.676 92.7263 387.358 92.9789 388.55 92.9789V94.2421C387.187 94.2421 385.995 94.2421 384.974 94.2421C384.122 94.2421 382.589 94.2421 380.546 94.2421Z" fill="#7C9BD0"/>
<path d="M409.157 94.2421V92.9789C410.349 92.9789 410.86 92.7263 411.03 92.7263C411.2 92.7263 411.2 92.2211 411.371 91.4632C411.371 89.9474 411.541 87.421 411.541 83.3789C411.541 81.8631 411.541 79.5894 411.541 76.8105C411.541 74.7894 411.541 73.7789 411.371 73.5263C411.371 73.2737 411.2 73.2736 411.2 73.021C411.03 73.021 410.349 72.7684 409.327 72.7684V71.5052C411.03 71.5052 412.222 71.5052 413.074 71.5052C414.606 71.5052 415.969 71.5052 417.161 71.5052V72.7684C416.139 72.7684 415.458 73.021 415.287 73.021C415.117 73.2736 415.117 73.5263 414.947 74.0315C414.947 75.042 414.777 77.3157 414.777 80.3473C414.777 84.642 414.777 87.6736 414.777 89.1894C414.777 90.9578 414.947 91.9684 414.947 92.221C414.947 92.4737 415.117 92.4737 415.287 92.4737C415.458 92.4737 415.969 92.7263 416.99 92.7263V93.9895H415.628C414.777 93.9895 413.925 93.9895 413.244 93.9895L409.157 94.2421Z" fill="#7C9BD0"/>
<path d="M449.687 90.7052L450.027 90.9579C449.857 91.4631 449.687 91.9684 449.516 92.7263C448.665 93.4842 447.643 93.9894 446.791 94.2421C445.94 94.4947 444.918 94.7474 443.726 94.7474C441.682 94.7474 439.809 94.2421 438.447 93.2316C436.914 92.221 435.892 90.7053 435.041 88.9369C434.189 87.1684 433.849 84.8948 433.849 82.6211C433.849 79.3369 434.7 76.5579 436.573 74.2842C438.276 72.0105 440.831 71 443.896 71C444.918 71 445.94 71 446.962 71.2526C447.984 71.5053 449.005 72.0105 450.027 72.5158V72.7684C449.857 73.2736 449.857 74.0316 449.687 74.5368C449.516 75.5474 449.516 76.5579 449.516 78.0737H448.494C448.494 76.3052 448.324 75.2947 448.324 75.2947C448.324 75.0421 447.984 74.7895 447.643 74.5368C447.302 74.0316 446.791 73.7789 446.11 73.5263C445.429 73.2737 444.748 73.021 443.896 73.021C442.023 73.021 440.49 73.7789 439.298 75.5473C438.106 77.0631 437.595 79.3368 437.595 82.3684C437.595 85.4 438.276 87.9263 439.639 89.9474C440.831 91.7158 442.704 92.7263 444.918 92.7263C445.77 92.7263 446.621 92.7263 447.302 92.4737C447.984 91.7158 448.835 91.4631 449.687 90.7052Z" fill="#7C9BD0"/>
<path d="M467.228 94.2421V93.2316C467.738 92.9789 468.079 92.7263 468.42 92.221C468.59 90.4526 468.59 86.9158 468.59 81.3579C468.59 77.5684 468.59 75.0421 468.59 74.0315C468.59 73.2736 468.42 73.021 468.42 72.7684C468.249 72.5157 467.738 72.5158 466.546 72.2632V71C468.42 71 469.952 71.2526 470.974 71.2526L477.616 71C478.297 71 478.978 71 479.489 71V71.2526C479.319 72.5158 479.148 74.0316 479.148 76.0526H478.127C478.127 74.5368 477.956 73.5263 477.956 73.5263C477.956 73.5263 477.786 73.2737 477.445 73.2737C476.764 73.021 475.742 73.021 474.38 73.021C473.699 73.021 472.847 73.021 471.996 73.021C471.826 76.3052 471.826 79.0842 471.826 81.1053C472.677 81.1053 473.529 81.1053 474.21 81.1053C475.402 81.1053 476.083 81.1053 476.253 80.8526C476.424 80.8526 476.424 80.6 476.594 80.3473C476.594 80.0947 476.764 79.3368 476.764 78.3263H477.786C477.786 80.0947 477.786 81.3579 477.786 81.8631V85.6526H476.935C476.935 84.1368 476.764 83.3789 476.764 83.1263C476.764 82.8737 476.594 82.8736 476.424 82.8736C476.083 82.8736 475.061 82.6211 473.699 82.6211C473.188 82.6211 472.677 82.6211 472.166 82.6211C472.166 83.1263 472.166 83.8842 472.166 84.3894C472.166 87.421 472.166 89.9474 472.337 91.4632H474.721C476.083 91.4632 477.275 91.4632 478.467 91.2105C478.638 90.2 478.808 88.9369 478.978 87.6737H480C479.83 89.6948 479.659 91.4631 479.659 93.2316C478.978 93.2316 478.297 93.2316 477.616 93.2316C477.105 93.2316 476.253 93.2316 475.061 93.2316C473.869 93.2316 472.677 93.2316 471.655 93.2316C470.293 94.2421 468.76 94.2421 467.228 94.2421Z" fill="#7C9BD0"/>
</svg>
